<svg xmlns="http://www.w3.org/2000/svg" xmlns:xlink="http://www.w3.org/1999/xlink" width="500" zoomAndPan="magnify" viewBox="0 0 375 374.999991" height="500" preserveAspectRatio="xMidYMid meet" version="1.0"><defs><g/><clipPath id="88154f14dc"><path d="M 124.074219 105 L 234 105 L 234 244.851562 L 124.074219 244.851562 Z M 124.074219 105 " clip-rule="nonzero"/></clipPath><clipPath id="287836050c"><path d="M 141 70 L 250.824219 70 L 250.824219 210 L 141 210 Z M 141 70 " clip-rule="nonzero"/></clipPath></defs><g fill="#ffffff" fill-opacity="1"><g transform="translate(130.921871, 272.99446)"><g><path d="M 29.882812 -1.046875 L 27.339844 -23.945312 C 27.257812 -24.605469 26.921875 -24.941406 26.308594 -24.941406 L 25.132812 -24.941406 C 24.457031 -24.941406 24.28125 -24.507812 23.960938 -23.960938 L 15.671875 -10.121094 L 7.386719 -23.960938 C 7.0625 -24.507812 6.886719 -24.941406 6.210938 -24.941406 L 5.035156 -24.941406 C 4.425781 -24.941406 4.085938 -24.605469 4.007812 -23.945312 L 1.464844 -1.046875 C 1.382812 -0.320312 1.851562 0 2.527344 0 L 7.882812 0 C 8.511719 0 8.851562 -0.289062 8.914062 -0.980469 L 9.589844 -7.789062 L 13.917969 -0.546875 C 14.335938 0.160156 14.738281 0.449219 15.351562 0.449219 L 15.996094 0.449219 C 16.605469 0.449219 17.007812 0.160156 17.425781 -0.546875 L 21.753906 -7.789062 L 22.429688 -0.980469 C 22.496094 -0.289062 22.832031 0 23.460938 0 L 28.820312 0 C 29.496094 0 29.960938 -0.320312 29.882812 -1.046875 Z M 29.882812 -1.046875 "/></g></g></g><g fill="#ffffff" fill-opacity="1"><g transform="translate(162.265954, 272.99446)"><g><path d="M 1.046875 -12.195312 C 1.046875 -5.050781 6.644531 0.449219 13.824219 0.449219 C 20.984375 0.449219 26.597656 -5.050781 26.597656 -12.195312 C 26.597656 -19.359375 20.96875 -24.894531 13.824219 -24.894531 C 6.660156 -24.894531 1.046875 -19.359375 1.046875 -12.195312 Z M 8.414062 -12.195312 C 8.414062 -15.222656 10.796875 -17.539062 13.824219 -17.539062 C 16.832031 -17.539062 19.230469 -15.222656 19.230469 -12.195312 C 19.230469 -9.1875 16.847656 -6.917969 13.824219 -6.917969 C 10.78125 -6.917969 8.414062 -9.1875 8.414062 -12.195312 Z M 8.414062 -12.195312 "/></g></g></g><g fill="#ffffff" fill-opacity="1"><g transform="translate(189.909248, 272.99446)"><g><path d="M 1.046875 -12.195312 C 1.046875 -5.050781 6.644531 0.449219 13.824219 0.449219 C 20.984375 0.449219 26.597656 -5.050781 26.597656 -12.195312 C 26.597656 -19.359375 20.96875 -24.894531 13.824219 -24.894531 C 6.660156 -24.894531 1.046875 -19.359375 1.046875 -12.195312 Z M 8.414062 -12.195312 C 8.414062 -15.222656 10.796875 -17.539062 13.824219 -17.539062 C 16.832031 -17.539062 19.230469 -15.222656 19.230469 -12.195312 C 19.230469 -9.1875 16.847656 -6.917969 13.824219 -6.917969 C 10.78125 -6.917969 8.414062 -9.1875 8.414062 -12.195312 Z M 8.414062 -12.195312 "/></g></g></g><g fill="#ffffff" fill-opacity="1"><g transform="translate(217.552541, 272.99446)"><g><path d="M 2.09375 -1.015625 C 2.09375 -0.484375 2.574219 0 3.136719 0 L 13.273438 0 C 20.515625 0 25.488281 -4.988281 25.488281 -12.214844 C 25.488281 -19.46875 20.5 -24.441406 13.273438 -24.441406 L 3.136719 -24.441406 C 2.574219 -24.441406 2.09375 -23.976562 2.09375 -23.414062 Z M 9.476562 -7 L 9.476562 -17.523438 L 13.273438 -17.554688 C 16.140625 -17.585938 18.085938 -15.238281 18.085938 -12.214844 C 18.085938 -9.347656 16.140625 -7 13.273438 -7 Z M 9.476562 -7 "/></g></g></g><g fill="#ffffff" fill-opacity="1"><g transform="translate(132.955733, 295.105586)"><g><path d="M 0.234375 -11.296875 C 0.234375 -11.503906 0.28125 -11.6875 0.375 -11.84375 C 0.476562 -12.007812 0.625 -12.09375 0.8125 -12.09375 L 7.671875 -12.09375 C 7.859375 -12.09375 8 -12.015625 8.09375 -11.859375 C 8.195312 -11.703125 8.25 -11.519531 8.25 -11.3125 C 8.25 -11.082031 8.195312 -10.882812 8.09375 -10.71875 C 7.988281 -10.5625 7.847656 -10.484375 7.671875 -10.484375 L 5.125 -10.484375 L 5.125 -0.578125 C 5.125 -0.398438 5.035156 -0.257812 4.859375 -0.15625 C 4.679688 -0.0507812 4.476562 0 4.25 0 C 4.007812 0 3.800781 -0.0507812 3.625 -0.15625 C 3.457031 -0.257812 3.375 -0.398438 3.375 -0.578125 L 3.375 -10.484375 L 0.8125 -10.484375 C 0.632812 -10.484375 0.492188 -10.5625 0.390625 -10.71875 C 0.285156 -10.882812 0.234375 -11.078125 0.234375 -11.296875 Z M 0.234375 -11.296875 "/></g></g></g><g fill="#ffffff" fill-opacity="1"><g transform="translate(149.151041, 295.105586)"><g><path d="M 1.09375 -0.578125 L 1.09375 -11.53125 C 1.09375 -11.6875 1.144531 -11.816406 1.25 -11.921875 C 1.363281 -12.035156 1.503906 -12.09375 1.671875 -12.09375 L 4.8125 -12.09375 C 7.351562 -12.09375 8.625 -10.96875 8.625 -8.71875 C 8.625 -7.78125 8.410156 -7.039062 7.984375 -6.5 C 7.566406 -5.96875 7 -5.613281 6.28125 -5.4375 L 8.609375 -1.09375 C 8.648438 -1.007812 8.671875 -0.925781 8.671875 -0.84375 C 8.671875 -0.625 8.554688 -0.421875 8.328125 -0.234375 C 8.097656 -0.046875 7.859375 0.046875 7.609375 0.046875 C 7.328125 0.046875 7.097656 -0.125 6.921875 -0.46875 L 4.5 -5.203125 L 2.828125 -5.203125 L 2.828125 -0.578125 C 2.828125 -0.398438 2.738281 -0.257812 2.5625 -0.15625 C 2.394531 -0.0507812 2.191406 0 1.953125 0 C 1.722656 0 1.519531 -0.0507812 1.34375 -0.15625 C 1.175781 -0.257812 1.09375 -0.398438 1.09375 -0.578125 Z M 2.828125 -6.609375 L 4.8125 -6.609375 C 6.175781 -6.609375 6.859375 -7.265625 6.859375 -8.578125 C 6.859375 -9.890625 6.175781 -10.546875 4.8125 -10.546875 L 2.828125 -10.546875 Z M 2.828125 -6.609375 "/></g></g></g><g fill="#ffffff" fill-opacity="1"><g transform="translate(166.106958, 295.105586)"><g><path d="M 0.234375 -0.734375 C 0.234375 -0.796875 0.238281 -0.84375 0.25 -0.875 L 3.546875 -11.59375 C 3.671875 -11.988281 4.039062 -12.1875 4.65625 -12.1875 C 5.269531 -12.1875 5.644531 -11.988281 5.78125 -11.59375 L 9.046875 -0.875 C 9.066406 -0.8125 9.078125 -0.765625 9.078125 -0.734375 C 9.078125 -0.535156 8.957031 -0.363281 8.71875 -0.21875 C 8.488281 -0.0703125 8.238281 0 7.96875 0 C 7.65625 0 7.457031 -0.117188 7.375 -0.359375 L 6.703125 -2.71875 L 2.609375 -2.71875 L 1.9375 -0.359375 C 1.851562 -0.117188 1.648438 0 1.328125 0 C 1.054688 0 0.804688 -0.0703125 0.578125 -0.21875 C 0.347656 -0.363281 0.234375 -0.535156 0.234375 -0.734375 Z M 3 -4.125 L 6.296875 -4.125 L 4.65625 -9.796875 Z M 3 -4.125 "/></g></g></g><g fill="#ffffff" fill-opacity="1"><g transform="translate(183.112483, 295.105586)"><g><path d="M 0.96875 -3.59375 L 0.96875 -8.40625 C 0.96875 -9.675781 1.304688 -10.609375 1.984375 -11.203125 C 2.671875 -11.796875 3.5625 -12.09375 4.65625 -12.09375 C 5.78125 -12.09375 6.6875 -11.8125 7.375 -11.25 C 8.0625 -10.695312 8.40625 -9.976562 8.40625 -9.09375 C 8.40625 -8.75 8.335938 -8.507812 8.203125 -8.375 C 8.078125 -8.25 7.851562 -8.1875 7.53125 -8.1875 C 6.957031 -8.1875 6.664062 -8.378906 6.65625 -8.765625 C 6.582031 -9.953125 5.9375 -10.546875 4.71875 -10.546875 C 3.394531 -10.546875 2.734375 -9.832031 2.734375 -8.40625 L 2.734375 -3.59375 C 2.734375 -2.164062 3.40625 -1.453125 4.75 -1.453125 C 5.144531 -1.453125 5.472656 -1.507812 5.734375 -1.625 C 6.003906 -1.738281 6.195312 -1.90625 6.3125 -2.125 C 6.425781 -2.351562 6.503906 -2.550781 6.546875 -2.71875 C 6.597656 -2.882812 6.632812 -3.085938 6.65625 -3.328125 C 6.6875 -3.710938 6.972656 -3.90625 7.515625 -3.90625 C 7.828125 -3.90625 8.050781 -3.84375 8.1875 -3.71875 C 8.332031 -3.59375 8.40625 -3.351562 8.40625 -3 C 8.40625 -2.082031 8.054688 -1.335938 7.359375 -0.765625 C 6.671875 -0.191406 5.765625 0.09375 4.640625 0.09375 C 3.546875 0.09375 2.660156 -0.203125 1.984375 -0.796875 C 1.304688 -1.390625 0.96875 -2.320312 0.96875 -3.59375 Z M 0.96875 -3.59375 "/></g></g></g><g fill="#ffffff" fill-opacity="1"><g transform="translate(199.770777, 295.105586)"><g><path d="M 1.09375 -0.578125 L 1.09375 -11.53125 C 1.09375 -11.71875 1.175781 -11.859375 1.34375 -11.953125 C 1.519531 -12.046875 1.726562 -12.09375 1.96875 -12.09375 C 2.207031 -12.09375 2.410156 -12.046875 2.578125 -11.953125 C 2.753906 -11.859375 2.84375 -11.71875 2.84375 -11.53125 L 2.84375 -6.5 L 6.890625 -11.84375 C 6.992188 -12.007812 7.15625 -12.09375 7.375 -12.09375 C 7.613281 -12.09375 7.84375 -11.992188 8.0625 -11.796875 C 8.28125 -11.609375 8.390625 -11.40625 8.390625 -11.1875 C 8.390625 -11.050781 8.34375 -10.9375 8.25 -10.84375 L 5.078125 -6.859375 L 8.859375 -1.125 C 8.921875 -1.019531 8.953125 -0.914062 8.953125 -0.8125 C 8.953125 -0.601562 8.84375 -0.40625 8.625 -0.21875 C 8.414062 -0.0390625 8.179688 0.046875 7.921875 0.046875 C 7.648438 0.046875 7.441406 -0.0625 7.296875 -0.28125 L 3.921875 -5.390625 L 2.84375 -4.03125 L 2.84375 -0.578125 C 2.84375 -0.398438 2.753906 -0.257812 2.578125 -0.15625 C 2.410156 -0.0507812 2.207031 0 1.96875 0 C 1.738281 0 1.535156 -0.0507812 1.359375 -0.15625 C 1.179688 -0.257812 1.09375 -0.398438 1.09375 -0.578125 Z M 1.09375 -0.578125 "/></g></g></g><g fill="#ffffff" fill-opacity="1"><g transform="translate(216.429071, 295.105586)"><g><path d="M 1.09375 -0.578125 L 1.09375 -11.515625 C 1.09375 -11.691406 1.171875 -11.832031 1.328125 -11.9375 C 1.484375 -12.039062 1.664062 -12.09375 1.875 -12.09375 L 7.765625 -12.09375 C 7.953125 -12.09375 8.09375 -12.015625 8.1875 -11.859375 C 8.289062 -11.703125 8.34375 -11.523438 8.34375 -11.328125 C 8.34375 -11.109375 8.289062 -10.921875 8.1875 -10.765625 C 8.082031 -10.617188 7.941406 -10.546875 7.765625 -10.546875 L 2.84375 -10.546875 L 2.84375 -6.75 L 5.390625 -6.75 C 5.566406 -6.75 5.707031 -6.679688 5.8125 -6.546875 C 5.914062 -6.410156 5.96875 -6.242188 5.96875 -6.046875 C 5.96875 -5.867188 5.914062 -5.707031 5.8125 -5.5625 C 5.71875 -5.425781 5.578125 -5.359375 5.390625 -5.359375 L 2.84375 -5.359375 L 2.84375 -1.5625 L 7.765625 -1.5625 C 7.941406 -1.5625 8.082031 -1.484375 8.1875 -1.328125 C 8.289062 -1.171875 8.34375 -0.984375 8.34375 -0.765625 C 8.34375 -0.566406 8.289062 -0.390625 8.1875 -0.234375 C 8.09375 -0.078125 7.953125 0 7.765625 0 L 1.875 0 C 1.664062 0 1.484375 -0.0507812 1.328125 -0.15625 C 1.171875 -0.257812 1.09375 -0.398438 1.09375 -0.578125 Z M 1.09375 -0.578125 "/></g></g></g><g fill="#ffffff" fill-opacity="1"><g transform="translate(232.789726, 295.105586)"><g><path d="M 1.09375 -0.578125 L 1.09375 -11.53125 C 1.09375 -11.6875 1.144531 -11.816406 1.25 -11.921875 C 1.363281 -12.035156 1.503906 -12.09375 1.671875 -12.09375 L 4.8125 -12.09375 C 7.351562 -12.09375 8.625 -10.96875 8.625 -8.71875 C 8.625 -7.78125 8.410156 -7.039062 7.984375 -6.5 C 7.566406 -5.96875 7 -5.613281 6.28125 -5.4375 L 8.609375 -1.09375 C 8.648438 -1.007812 8.671875 -0.925781 8.671875 -0.84375 C 8.671875 -0.625 8.554688 -0.421875 8.328125 -0.234375 C 8.097656 -0.046875 7.859375 0.046875 7.609375 0.046875 C 7.328125 0.046875 7.097656 -0.125 6.921875 -0.46875 L 4.5 -5.203125 L 2.828125 -5.203125 L 2.828125 -0.578125 C 2.828125 -0.398438 2.738281 -0.257812 2.5625 -0.15625 C 2.394531 -0.0507812 2.191406 0 1.953125 0 C 1.722656 0 1.519531 -0.0507812 1.34375 -0.15625 C 1.175781 -0.257812 1.09375 -0.398438 1.09375 -0.578125 Z M 2.828125 -6.609375 L 4.8125 -6.609375 C 6.175781 -6.609375 6.859375 -7.265625 6.859375 -8.578125 C 6.859375 -9.890625 6.175781 -10.546875 4.8125 -10.546875 L 2.828125 -10.546875 Z M 2.828125 -6.609375 "/></g></g></g><g clip-path="url(#88154f14dc)"><path fill="#00bf63" d="M 215.5625 210.167969 C 215.5625 192.847656 215.5625 175.789062 215.5625 158.730469 C 215.34375 158.644531 215.121094 158.5625 214.902344 158.476562 C 205.84375 169.863281 196.78125 181.25 187.390625 193.050781 C 184.050781 188.882812 180.847656 184.894531 177.363281 180.546875 C 160.273438 202.046875 143.316406 223.371094 126.222656 244.875 C 125.445312 244.25 124.820312 243.75 124.078125 243.15625 C 160.464844 197.359375 196.714844 151.726562 233.429688 105.515625 C 233.429688 140.839844 233.429688 175.417969 233.429688 210.167969 C 227.5625 210.167969 221.847656 210.167969 215.5625 210.167969 Z M 215.5625 210.167969 " fill-opacity="1" fill-rule="nonzero"/></g><g clip-path="url(#287836050c)"><path fill="#00bf63" d="M 141.363281 105.992188 C 154.640625 122.699219 167.503906 138.882812 180.65625 155.429688 C 181.652344 154.226562 182.53125 153.203125 183.367188 152.152344 C 204.457031 125.59375 225.542969 99.019531 246.664062 72.484375 C 247.597656 71.316406 248.476562 68.617188 250.804688 71.691406 C 224.296875 105.058594 197.769531 138.453125 170.933594 172.230469 C 167.195312 167.59375 163.632812 163.171875 159.65625 158.242188 C 159.503906 159.539062 159.339844 160.28125 159.339844 161.027344 C 159.324219 168.726562 159.421875 176.429688 159.261719 184.125 C 159.226562 185.707031 158.632812 187.550781 157.675781 188.796875 C 152.488281 195.582031 147.101562 202.21875 141.359375 209.445312 C 141.363281 174.773438 141.363281 140.757812 141.363281 105.992188 Z M 141.363281 105.992188 " fill-opacity="1" fill-rule="nonzero"/></g></svg>